<svg width="133" height="58" viewBox="0 0 133 58" fill="none" xmlns="http://www.w3.org/2000/svg">
<rect x="0.496582" y="0.5" width="132.007" height="57" rx="28.5" fill="#0E2642"/>
<rect x="0.496582" y="0.5" width="132.007" height="57" rx="28.5" stroke="#10375C"/>
<path d="M59.3354 38.911C59.3354 39.4563 59.1594 39.9499 58.8055 40.3918C58.4534 40.8337 57.9809 41.1322 57.3916 41.2891C57.1372 41.356 56.8598 41.4058 56.5613 41.4345C56.261 41.4651 55.9262 41.4785 55.5569 41.4785L55.5684 43.8489H54.6444C54.6482 43.625 54.6539 43.2099 54.6616 42.6015C54.6692 41.995 54.6731 41.0557 54.6731 39.7853C54.6731 39.3817 54.6731 38.8862 54.6673 38.3007C54.6616 37.7153 54.6559 37.061 54.6444 36.3436C54.8051 36.3398 54.962 36.3379 55.1169 36.3379H55.4957C56.1424 36.3379 56.6914 36.378 57.1449 36.4603C57.5983 36.5426 57.9809 36.6822 58.2889 36.8812C58.6295 37.0936 58.8877 37.371 59.0676 37.7134C59.2474 38.0559 59.3373 38.4538 59.3373 38.911H59.3354ZM58.3827 38.911C58.3827 38.5265 58.2947 38.1974 58.1186 37.9277C57.9426 37.656 57.6729 37.4437 57.3113 37.2868C57.0875 37.1892 56.8445 37.128 56.5824 37.105C56.3203 37.0802 56.0524 37.0687 55.775 37.0687H55.5684C55.5684 37.1089 55.5646 37.3901 55.5569 37.9086C55.5493 38.4289 55.5455 38.8383 55.5455 39.1425C55.5455 39.4199 55.5455 39.7471 55.5474 40.124C55.5474 40.5009 55.5493 40.717 55.5493 40.7687H55.7731C56.0238 40.7687 56.2897 40.7515 56.5728 40.719C56.8541 40.6845 57.097 40.6233 57.2979 40.5334C57.6499 40.3842 57.9178 40.1756 58.1033 39.9116C58.2889 39.6476 58.3807 39.3147 58.3807 38.913L58.3827 38.911Z" fill="white"/>
<path d="M66.5307 43.8374C66.4867 43.8374 66.2495 43.8374 65.821 43.8316C65.3924 43.8278 64.8472 43.8259 64.1814 43.8259C63.7433 43.8259 63.3281 43.8259 62.934 43.8316C62.5399 43.8355 62.207 43.8374 61.9334 43.8374C61.9411 43.1946 61.9468 42.5441 61.9526 41.8841C61.9583 41.224 61.9602 40.5774 61.9602 39.9422C61.9602 38.8804 61.9564 38.0712 61.9488 37.5144C61.9411 36.9577 61.9354 36.5674 61.9315 36.3436H62.8556C62.8479 36.8257 62.8422 37.3824 62.8384 38.0119C62.8345 38.6432 62.8326 39.1597 62.8326 39.5634C62.8326 40.5449 62.8326 41.3656 62.8384 42.0218C62.8422 42.6799 62.8441 43.0262 62.8441 43.0645C62.9972 43.0645 63.1827 43.0645 63.3989 43.0664C63.6151 43.0683 63.8122 43.0683 63.9882 43.0683C64.6578 43.0683 65.2394 43.0664 65.7349 43.0606C66.2304 43.0549 66.4944 43.053 66.5288 43.053V43.8374H66.5307Z" fill="white"/>
<path d="M75.1647 43.5485L74.2924 44C74.2771 43.9598 74.1565 43.6805 73.9327 43.164C73.7088 42.6474 73.4123 41.9855 73.045 41.1743H69.7257C69.3316 42.0448 69.0274 42.7201 68.8131 43.1984C68.5988 43.6767 68.4802 43.9445 68.4592 44L67.7092 43.5944C67.8068 43.3993 68.2066 42.5441 68.9126 41.0251C69.6166 39.506 70.3494 37.9105 71.107 36.2365H71.8359C72.5839 37.9105 73.3186 39.5309 74.0398 41.0997C74.7611 42.6685 75.1361 43.4854 75.1667 43.5485H75.1647ZM72.7293 40.4569C72.5303 40.0015 72.3218 39.5232 72.1018 39.0258C71.8818 38.5284 71.6503 38.008 71.4092 37.4666L71.3863 37.4724C71.1988 37.8837 70.9711 38.3888 70.7052 38.9876C70.4393 39.5864 70.2212 40.0761 70.0471 40.4569V40.4626H72.7293V40.4569Z" fill="white"/>
<path d="M82.6279 36.7071C82.5973 36.7454 82.2281 37.2103 81.5183 38.1037C80.8085 38.9971 80.2365 39.7184 79.8022 40.2675C79.7946 40.9447 79.7965 41.6545 79.8041 42.3968C79.8137 43.141 79.8194 43.625 79.8233 43.8489H78.8992C78.9069 43.625 78.9145 43.1333 78.9222 42.3777C78.9298 41.6201 78.9317 40.939 78.9279 40.3344C78.4726 39.7337 77.9082 39.0048 77.2348 38.1515C76.5613 37.2983 76.1998 36.8391 76.1481 36.776L76.8847 36.2154C76.9325 36.2786 77.2271 36.6707 77.7666 37.392C78.3061 38.1133 78.8495 38.8288 79.3947 39.5386H79.4062C79.9342 38.8613 80.4871 38.1496 81.0649 37.3997C81.6427 36.6497 81.9468 36.2556 81.9775 36.2135L82.6317 36.7071H82.6279Z" fill="white"/>
<path d="M31.0802 14.9967C30.4221 14.331 29.6358 14 28.7232 14H21.9966V29.1062H25.3599V22.3987H28.7232C29.6358 22.3987 30.4221 22.0658 31.0802 21.402C31.7383 20.7362 32.0674 19.948 32.0674 19.0354V17.3633C32.0674 16.4507 31.7383 15.6606 31.0802 14.9967ZM28.683 19.3759C28.6199 19.6897 28.4726 19.9709 28.2296 20.2139C27.9005 20.543 27.5007 20.7075 27.032 20.7075H25.3599V19.6151C24.3976 18.8498 24.3995 17.1777 25.3599 16.4106V15.6721H27.032C27.428 15.6721 27.7704 15.7964 28.0651 16.0279C29.4291 16.533 29.6319 18.4404 28.683 19.374V19.3759Z" fill="white"/>
<path d="M35.4307 29.1062V14H42.1573C43.0718 14 43.8562 14.3329 44.5143 14.9967C45.1724 15.6606 45.5015 16.4507 45.5015 17.3633V18.2701C45.5015 19.022 45.247 19.7433 44.7362 20.4358C44.2254 21.1284 43.3664 21.4727 42.1573 21.4727H43.8294C44.2866 21.4727 44.6788 21.6373 45.0079 21.9663C45.3369 22.2954 45.5015 22.6952 45.5015 23.164V29.1062H42.1573V24.0708C42.1573 23.6135 41.9928 23.2214 41.6637 22.8923C41.3346 22.5632 40.9348 22.3987 40.4661 22.3987H38.794V29.1062H35.4307ZM38.794 20.7075H40.4661C40.9367 20.7075 41.3346 20.543 41.6637 20.2139C41.9928 19.8848 42.1573 19.4926 42.1573 19.0354V17.3633C42.1573 16.8927 41.9928 16.4947 41.6637 16.1657C41.3346 15.8366 40.9348 15.6721 40.4661 15.6721H38.794V20.7075Z" fill="white"/>
<path d="M52.23 14H55.5933C56.5059 14 57.2922 14.3329 57.9503 14.9967C58.6084 15.6606 58.9375 16.4507 58.9375 17.3633V25.7429C58.9375 26.6554 58.6084 27.4456 57.9503 28.1094C57.2922 28.7733 56.5059 29.1062 55.5933 29.1062H52.23C51.3174 29.1062 50.5273 28.7771 49.8634 28.119C49.1996 27.4609 48.8667 26.6688 48.8667 25.7429V17.3633C48.8667 16.4373 49.1996 15.6453 49.8634 14.9872C50.5273 14.3291 51.3155 14 52.23 14ZM52.23 17.3633V25.7429C52.23 26.2001 52.3945 26.5961 52.7236 26.9309C53.0526 27.2676 53.4448 27.4341 53.9021 27.4341C54.3593 27.4341 54.7706 27.2657 55.0997 26.9309C55.4288 26.5961 55.5933 26.2001 55.5933 25.7429V17.3633C55.5933 16.8927 55.4288 16.4947 55.0997 16.1657C54.7706 15.8366 54.3708 15.6721 53.9021 15.6721C53.4334 15.6721 53.0526 15.8366 52.7236 16.1657C52.3945 16.4947 52.23 16.8946 52.23 17.3633Z" fill="white"/>
<path d="M72.3811 14V25.7429C72.3811 26.8716 72.1018 27.7134 71.5451 28.2701C70.9884 28.8269 70.1447 29.1062 69.0178 29.1062H65.6736C64.5449 29.1062 63.7031 28.8269 63.1464 28.2701C62.5897 27.7134 62.3103 26.8697 62.3103 25.7429V22.3987H65.6736V25.7429C65.6736 26.2135 65.8382 26.6114 66.1672 26.9405C66.4963 27.2696 66.8885 27.4341 67.3457 27.4341C67.803 27.4341 68.1952 27.2696 68.5242 26.9405C68.8533 26.6114 69.0178 26.2116 69.0178 25.7429V14H72.3811Z" fill="white"/>
<path d="M75.7253 29.1062V14H84.124V15.6721H79.0886V20.7075H82.4519V22.3987H79.0886V27.4341H84.124V29.1062H75.7253Z" fill="white"/>
<path d="M97.5581 25.7429C97.4242 27.9851 96.3088 29.1062 94.2139 29.1062H90.8506C89.9361 29.1062 89.1479 28.7771 88.4841 28.119C87.8183 27.4609 87.4873 26.6688 87.4873 25.7429V17.3633C87.4873 16.4507 87.8125 15.6606 88.463 14.9967C89.1154 14.3329 89.9113 14 90.8506 14H94.2139C96.3222 14 97.4376 15.1211 97.5581 17.3633H95.886C95.7521 16.2346 95.1935 15.6721 94.2139 15.6721H92.5227C92.0655 15.6721 91.6733 15.8366 91.3442 16.1657C91.0151 16.4947 90.8506 16.8946 90.8506 17.3633V25.7429C90.8506 26.2001 91.0151 26.5961 91.3442 26.9309C91.6733 27.2676 92.0655 27.4341 92.5227 27.4341H94.2139C95.2068 27.4341 95.7655 26.8697 95.886 25.7429H97.5581Z" fill="white"/>
<path d="M104.296 29.1062V15.6721H100.933V14H111.004V15.6721H107.64V29.1062H104.296Z" fill="white"/>
<path d="M30.1887 16.2594C29.9093 15.4712 29.3048 15.0408 28.5319 14.8131C27.8412 14.6103 27.1372 14.6275 26.4332 14.6945C25.8707 14.748 25.335 14.8954 24.8472 15.1881C24.1642 15.5975 23.8045 16.2059 23.7395 16.996C23.7356 17.0342 23.7242 17.0744 23.7184 17.1127L23.7414 17.7C23.7911 17.9334 23.8313 18.1707 23.8925 18.4002C24.0188 18.8862 24.2675 19.3185 24.5105 19.7509C24.8357 20.3344 25.2374 20.8644 25.6507 21.3886C25.7004 21.4517 25.7444 21.5187 25.7942 21.5837C26.0027 21.4632 26.2323 21.3771 26.4695 21.3293C26.2878 21.1169 26.1098 20.8988 25.9377 20.6616C26.7737 20.9868 27.5925 20.9753 28.398 20.5716C28.4075 20.5831 28.4152 20.5965 28.4247 20.608C28.2621 20.8337 28.088 21.0538 27.9369 21.2872C27.8948 21.3522 27.8565 21.4192 27.8164 21.4842C28.0268 21.5914 28.2162 21.7406 28.375 21.9376C28.7021 21.4096 29.0331 20.8835 29.3526 20.3516C29.7027 19.7681 29.9954 19.1521 30.1867 18.4978C30.4029 17.7574 30.4546 17.0017 30.1906 16.2575L30.1887 16.2594ZM25.2279 17.1242C25.3962 17.1184 25.5168 17.2294 25.5244 17.3977C25.5321 17.5661 25.4211 17.6885 25.2528 17.6943C25.0901 17.7 24.962 17.5833 24.9543 17.4207C24.9466 17.2523 25.0595 17.1318 25.2279 17.1261V17.1242ZM25.2738 18.6011C25.1188 18.603 24.9964 18.4844 24.9907 18.3256C24.9849 18.1611 25.1016 18.0272 25.2604 18.0214C25.4154 18.0157 25.5569 18.1439 25.5627 18.2969C25.5703 18.4538 25.4345 18.5973 25.2738 18.6011ZM26.0926 16.1867C26.2667 16.1791 26.3815 16.2843 26.3872 16.4565C26.393 16.6267 26.2839 16.7492 26.1194 16.7568C25.9549 16.7645 25.8305 16.6497 25.8229 16.4833C25.8133 16.313 25.9224 16.1944 26.0926 16.1867ZM26.1481 17.0897C26.3088 17.0897 26.4217 17.2007 26.4236 17.3633C26.4255 17.5221 26.3012 17.6541 26.1462 17.6598C25.9874 17.6656 25.8554 17.5317 25.8554 17.3652C25.8554 17.2045 25.9759 17.0916 26.1481 17.0916V17.0897ZM26.1653 17.9851C26.3279 17.9813 26.4561 18.1018 26.4599 18.2644C26.4638 18.4213 26.3375 18.5571 26.1825 18.5628C26.0237 18.5686 25.8994 18.4481 25.8937 18.2816C25.8879 18.1133 26.0008 17.9889 26.1653 17.9851ZM26.2208 19.462C26.0582 19.4678 25.9338 19.3491 25.93 19.1846C25.9243 19.0239 26.0486 18.8881 26.2017 18.8843C26.3585 18.8804 26.4906 19.0086 26.4963 19.1655C26.502 19.3262 26.3815 19.4563 26.2208 19.462ZM26.9822 16.1504C27.1487 16.1389 27.2826 16.2518 27.2922 16.4106C27.3017 16.5674 27.1774 16.709 27.0243 16.7186C26.8674 16.7281 26.7297 16.6038 26.722 16.4469C26.7125 16.29 26.8254 16.1638 26.9841 16.1523L26.9822 16.1504ZM27.0435 17.0553C27.2099 17.0553 27.3228 17.1605 27.3266 17.3231C27.3304 17.4915 27.2042 17.6235 27.0396 17.6235C26.8808 17.6235 26.7603 17.5011 26.7584 17.3327C26.7546 17.1663 26.8655 17.0572 27.0435 17.0553ZM27.0741 17.9545C27.2348 17.9506 27.3553 18.0616 27.3629 18.2204C27.3706 18.3868 27.2443 18.5246 27.0817 18.5265C26.9248 18.5284 26.7967 18.4021 26.7928 18.2414C26.7871 18.0788 26.9076 17.9583 27.0741 17.9545ZM27.1295 19.4295C26.9688 19.4391 26.8368 19.3185 26.8292 19.1578C26.8234 18.9971 26.9421 18.8632 27.0989 18.8536C27.2577 18.8441 27.3897 18.9665 27.3993 19.1272C27.407 19.2898 27.2902 19.4218 27.1295 19.4314V19.4295ZM27.8814 16.114C28.0479 16.1064 28.1913 16.2326 28.1952 16.3895C28.2009 16.5445 28.0727 16.6765 27.912 16.6822C27.7475 16.688 27.625 16.5751 27.6193 16.4067C27.6136 16.2441 27.7207 16.1217 27.8795 16.114H27.8814ZM27.9273 17.017C28.0938 17.0094 28.222 17.1223 28.2296 17.283C28.2373 17.4417 28.1148 17.5776 27.9579 17.5852C27.7991 17.5929 27.6557 17.459 27.6518 17.3002C27.648 17.1471 27.7685 17.0247 27.9254 17.017H27.9273ZM27.9732 17.9162C28.1378 17.9105 28.264 18.0291 28.2679 18.1936C28.2698 18.3562 28.1473 18.4882 27.9905 18.4921C27.8336 18.4959 27.6977 18.3677 27.692 18.2108C27.6863 18.054 27.8106 17.9239 27.9732 17.9162ZM28.0268 19.374C27.8661 19.3798 27.7303 19.2573 27.7264 19.1024C27.7226 18.9474 27.8489 18.8116 28.0058 18.8039C28.1646 18.7963 28.2985 18.9206 28.3042 19.0775C28.31 19.2382 28.1894 19.3664 28.0268 19.3721V19.374ZM28.8322 16.9807C28.991 16.9749 29.125 17.0974 29.1307 17.2562C29.1364 17.415 29.014 17.5431 28.8514 17.5508C28.6888 17.5584 28.5587 17.4379 28.5529 17.2772C28.5491 17.1184 28.6715 16.9864 28.8303 16.9807H28.8322ZM28.9088 18.4538C28.7519 18.4634 28.595 18.3275 28.5893 18.1764C28.5835 18.0291 28.7213 17.8818 28.8705 17.8741C29.0274 17.8665 29.1594 17.9908 29.167 18.1534C29.1747 18.3103 29.0599 18.4423 28.9069 18.4538H28.9088Z" fill="white"/>
</svg>
