<svg width="64" height="64" viewBox="0 0 64 64" fill="none" xmlns="http://www.w3.org/2000/svg">
<rect width="64" height="64" rx="20" fill="#176DBF"/>
<path d="M38.7958 19.0193C38.6335 18.2365 38.3976 17.4715 38.0913 16.7348C37.975 16.4531 37.8715 16.1575 37.7048 15.908C37.0804 14.974 36.2223 14.295 35.2742 13.7391C34.1241 13.063 32.8585 12.6719 31.5666 12.3994C30.3204 12.1361 29.0462 12.0783 27.7781 12.0226C26.4315 11.9555 25.0818 12.0378 23.7526 12.268C23.0601 12.3902 22.37 12.5191 21.6988 12.7352C21.424 12.8227 21.2219 12.9616 21.2436 13.3024C21.2543 13.4699 21.2313 13.6373 21.2268 13.8048C21.1755 15.6242 21.2901 17.4419 21.2827 19.2613C21.274 21.3239 21.3237 23.3865 21.4112 25.4483C21.546 28.6551 21.3878 31.8597 21.3291 35.0648C21.2855 37.4192 21.2186 39.774 21.1011 42.1268C21.0461 43.2269 21.0773 44.3292 21.0231 45.4285C20.9442 47.0269 21.0875 48.619 21.1549 50.2119C21.1923 51.091 21.7575 51.7847 22.6748 51.9593C23.0371 52.0283 23.3957 51.9965 23.7559 51.9593C23.9416 51.9174 24.1531 51.9664 24.2993 51.7918C24.6197 51.7257 24.8744 51.5452 25.0884 51.3041C25.5271 50.8068 25.7091 50.2018 25.7535 49.5488C25.7765 49.2172 25.7325 48.8831 25.7752 48.5512C25.7691 48.3 25.7674 48.0488 25.7563 47.7976C25.6955 46.4052 25.6334 45.013 25.5698 43.6209C25.4737 41.4683 25.4959 39.3139 25.4877 37.1605C25.4877 36.777 25.5259 36.3961 25.5612 36.0147C25.592 35.6798 25.6467 35.3482 25.6101 35.0146C25.5982 34.9057 25.6228 34.8944 25.705 34.8743C26.9348 34.5746 28.1088 34.1166 29.2655 33.6008C30.5972 33.0076 31.9248 32.4085 33.1407 31.5876C34.7094 30.5285 36.0136 29.188 37.1001 27.6307C37.812 26.61 38.4084 25.5278 38.6417 24.2711C38.7777 23.5372 38.8504 22.7971 38.9379 22.0578C39.0546 21.0439 39.0066 20.0173 38.7958 19.0193ZM28.9784 23.7018C28.9784 23.3991 29.2499 23.1081 29.526 23.1106C29.8525 23.114 30.0908 23.3673 30.0945 23.7143C30.0982 24.0492 29.8669 24.3004 29.544 24.31C29.2327 24.3188 28.9755 24.0421 28.9772 23.7018H28.9784ZM27.9576 24.1899C27.6759 24.1941 27.4154 23.9387 27.4142 23.654C27.4118 23.5794 27.4242 23.5051 27.4506 23.4355C27.4769 23.3659 27.5168 23.3024 27.5677 23.2488C27.6186 23.1952 27.6796 23.1525 27.747 23.1234C27.8144 23.0943 27.8869 23.0793 27.9601 23.0792C28.2858 23.0717 28.5241 23.3003 28.5311 23.6268C28.5381 23.9534 28.3027 24.1849 27.9564 24.1899H27.9576ZM31.238 24.0978C30.9542 24.0894 30.6769 23.8077 30.6827 23.5343C30.6841 23.4574 30.7007 23.3816 30.7314 23.3113C30.7622 23.241 30.8064 23.1778 30.8616 23.1253C30.9167 23.0728 30.9817 23.0321 31.0526 23.0056C31.1234 22.9792 31.1988 22.9675 31.2742 22.9712C31.4145 22.9812 31.5458 23.0456 31.6409 23.1512C31.736 23.2568 31.7878 23.3956 31.7856 23.5389C31.7729 23.8445 31.5157 24.1062 31.2368 24.0978H31.238ZM33.4562 21.946C33.4701 22.2462 33.1818 22.5158 32.8351 22.5271C32.5476 22.5363 32.3122 22.2884 32.3011 21.9653C32.2904 21.6781 32.5607 21.3934 32.8544 21.3833C33.1514 21.3729 33.4402 21.6421 33.4537 21.946H33.4562ZM32.7168 19.5384C32.7931 19.5364 32.8691 19.5502 32.9401 19.5789C33.0111 19.6075 33.0756 19.6505 33.1299 19.7053C33.1842 19.76 33.2271 19.8254 33.256 19.8974C33.2849 19.9694 33.2992 20.0467 33.298 20.1245C33.298 20.4753 33.0885 20.6687 32.7 20.6725C32.4231 20.6754 32.1799 20.4146 32.1816 20.117C32.1832 19.8193 32.4346 19.5443 32.7135 19.5384H32.7168ZM31.243 22.4927C31.1679 22.4932 31.0936 22.4785 31.0242 22.4493C30.9549 22.4202 30.892 22.3772 30.8391 22.3229C30.7863 22.2686 30.7446 22.2041 30.7166 22.1332C30.6885 22.0623 30.6746 21.9864 30.6757 21.91C30.6831 21.6291 30.955 21.3771 31.2508 21.3775C31.3254 21.3783 31.3992 21.3943 31.4678 21.4244C31.5363 21.4546 31.5983 21.4985 31.65 21.5533C31.7018 21.6082 31.7423 21.6731 31.7691 21.7441C31.796 21.8151 31.8087 21.8908 31.8065 21.9669C31.7987 22.2219 31.5133 22.489 31.2397 22.4927H31.243ZM31.6903 20.1873C31.6915 20.2621 31.6782 20.3365 31.651 20.406C31.6237 20.4755 31.5832 20.5388 31.5318 20.5921C31.4803 20.6455 31.4189 20.6879 31.3512 20.7169C31.2835 20.7459 31.2108 20.7608 31.1374 20.7608C30.8564 20.7646 30.5903 20.4921 30.5874 20.1978C30.5845 19.8917 30.824 19.6632 31.1473 19.664C31.459 19.6644 31.6845 19.8821 31.687 20.1873H31.6903ZM31.0306 17.8182C31.1023 17.8175 31.1733 17.8314 31.2396 17.8593C31.3058 17.8871 31.3659 17.9282 31.4162 17.9802C31.4666 18.0322 31.5061 18.094 31.5325 18.1619C31.5589 18.2298 31.5716 18.3024 31.5699 18.3754C31.5654 18.6991 31.3391 18.9239 31.0224 18.9197C30.7217 18.9151 30.4592 18.6597 30.4609 18.3754C30.461 18.3006 30.476 18.2266 30.5047 18.1577C30.5335 18.0889 30.5756 18.0267 30.6284 17.9747C30.6812 17.9227 30.7438 17.8821 30.8123 17.8552C30.8808 17.8284 30.9539 17.8158 31.0273 17.8182H31.0306ZM29.581 22.5978C29.2746 22.6058 28.9952 22.3345 28.994 22.0272C28.9962 21.8758 29.0571 21.7315 29.1634 21.6257C29.2697 21.52 29.4127 21.4614 29.5613 21.4629C29.8488 21.4629 30.1261 21.7559 30.1318 22.0611C30.1335 22.3341 29.8706 22.5903 29.5777 22.5978H29.581ZM29.5153 20.9233C29.2314 20.9199 28.9698 20.6445 28.9731 20.3522C28.9763 20.0764 29.2405 19.8026 29.5095 19.7967C29.7876 19.7904 30.0813 20.0898 30.076 20.3732C30.0684 20.5208 30.0059 20.66 29.9011 20.7622C29.7962 20.8645 29.6571 20.9221 29.512 20.9233H29.5153ZM29.5013 17.7927C29.7888 17.7927 30.0497 18.0887 30.046 18.4081C30.0423 18.6991 29.7769 18.9523 29.4795 18.9456C29.1821 18.9389 28.9156 18.6727 28.9188 18.3939C28.9202 18.2368 28.9813 18.0865 29.0894 17.9746C29.1975 17.8626 29.344 17.7979 29.498 17.794L29.5013 17.7927ZM28.0599 22.5924C27.744 22.5945 27.5115 22.3638 27.5083 22.0481C27.5054 21.7551 27.7646 21.501 28.0673 21.5039C28.3549 21.5039 28.6153 21.7647 28.6116 22.0435C28.6087 22.1911 28.5487 22.3315 28.4448 22.4342C28.3409 22.537 28.2014 22.5938 28.0566 22.5924H28.0599ZM28.0254 20.876C27.712 20.8688 27.459 20.6147 27.4606 20.3083C27.4606 20.0249 27.7375 19.7536 28.0209 19.7565C28.3134 19.7599 28.5845 20.045 28.5738 20.3389C28.5602 20.6231 28.2941 20.8822 28.0221 20.876H28.0254ZM27.9482 17.8287C28.2579 17.8241 28.5598 18.1163 28.568 18.4282C28.5763 18.7288 28.2969 19.0248 28.0045 19.0256C27.7017 19.0256 27.3924 18.6907 27.3949 18.3608C27.3932 18.087 27.6561 17.8325 27.9449 17.8287H27.9482ZM26.6268 19.7883C26.7053 19.7883 26.7831 19.8042 26.8556 19.8349C26.9281 19.8656 26.994 19.9107 27.0494 19.9674C27.1048 20.0242 27.1486 20.0916 27.1784 20.1656C27.2081 20.2397 27.2232 20.3191 27.2228 20.3991C27.2273 20.6809 26.9607 20.948 26.6674 20.9551C26.3577 20.963 26.0771 20.6725 26.0747 20.3418C26.0693 20.0517 26.3306 19.7896 26.6235 19.7883H26.6268ZM26.513 21.4813C26.8174 21.4738 27.1106 21.7572 27.1189 22.0674C27.1258 22.3274 26.8128 22.633 26.5343 22.6384C26.3825 22.64 26.2362 22.5811 26.1265 22.4741C26.0168 22.3672 25.9525 22.2208 25.9473 22.0661C25.9346 21.7924 26.2287 21.488 26.5097 21.4813H26.513Z" fill="white"/>
<path d="M48.9617 40.7723C48.9058 40.7493 48.8859 40.7473 48.8759 40.7363C47.8605 39.682 46.6924 39.8905 46.089 41.257C45.7608 42.0011 45.5902 42.7991 45.3987 43.5891C45.2521 44.2126 45.0526 44.8011 44.496 45.2001C44.2763 45.3775 43.9962 45.4627 43.715 45.4375C41.2273 45.21 39.5076 43.648 39.0567 41.1992C39.0158 40.9777 39.0418 40.8999 39.2662 40.7324C40.2467 40.0012 41.4128 39.9224 42.529 39.6471C44.4022 39.1853 45.0915 36.9868 43.8576 35.4836C43.7648 35.3709 43.6272 35.2622 43.6771 35.0996C43.7209 34.954 43.8766 35.0098 43.9763 35.0138C47.3159 35.1515 49.3048 38.3244 48.9617 40.7723Z" fill="white"/>
<path d="M39 40.3844C39.1995 38.5969 39.5636 36.9172 41.1316 35.796C41.6004 35.4629 42.1291 35.2863 42.6717 35.1277C42.7497 35.0991 42.8345 35.0941 42.9153 35.1132C42.9962 35.1324 43.0697 35.1749 43.1266 35.2354C43.9146 36.0185 44.135 36.9541 43.8876 38.0174C43.76 38.566 43.3979 38.9061 42.8902 39.0987C42.5777 39.2067 42.2562 39.2868 41.9296 39.3381C40.9052 39.5306 39.8658 39.6942 39 40.3844Z" fill="white"/>
<path d="M44.9899 45.3528C45.9464 44.2965 45.8307 42.882 46.3464 41.6901C46.5719 41.1694 46.8452 40.7255 47.3958 40.4931C47.526 40.4206 47.6755 40.3902 47.8237 40.4063C48.2995 40.506 48.9349 41.4556 48.8571 41.9504C48.5738 43.7658 46.903 45.255 44.9899 45.3528Z" fill="white"/>
</svg>
